<svg xmlns="http://www.w3.org/2000/svg" viewBox="0 0 64 64" width="64" height="64" fill="none" role="img" aria-hidden="true"><defs><linearGradient id="g" x1="16" y1="12" x2="48" y2="52" gradientUnits="userSpaceOnUse"><stop offset="0" stop-color="#60A5FA"/><stop offset="1" stop-color="#2563EB"/></linearGradient></defs><path d="M22 25h20a11 11 0 0 1 10.6 13.9l-1.7 6.2A6.2 6.2 0 0 1 39.5 47L36 42.5H28L24.5 47A6.2 6.2 0 0 1 13.1 45.1l-1.7-6.2A11 11 0 0 1 22 25z" fill="url(#g)"/><rect x="17.5" y="33.2" width="9" height="2.6" rx="1.3" fill="#fff" opacity="0.85"/><rect x="20.7" y="30" width="2.6" height="9" rx="1.3" fill="#fff" opacity="0.85"/><circle cx="42" cy="32.5" r="2.1" fill="#fff" opacity="0.85"/><circle cx="46.5" cy="37" r="2.1" fill="#fff" opacity="0.85"/></svg>
