<svg xmlns="http://www.w3.org/2000/svg" viewBox="0 0 64 64" width="64" height="64" fill="none" role="img" aria-hidden="true"><defs><linearGradient id="g" x1="16" y1="12" x2="48" y2="52" gradientUnits="userSpaceOnUse"><stop offset="0" stop-color="#60A5FA"/><stop offset="1" stop-color="#2563EB"/></linearGradient></defs><path d="M25 14l-8.5 4.8 3 7.6 3.5-1.4V36l-1.8 15.8A1.8 1.8 0 0 0 26 54h4.2l1.8-5.2 1.8 5.2H38a1.8 1.8 0 0 0 1.8-2.2L38 36V25l3.5 1.4 3-7.6L36 13.9a5.5 5.5 0 0 1-11 .1z" fill="url(#g)"/><path d="M25 14a5.5 5.5 0 0 0 11 0" fill="none" stroke="#fff" stroke-opacity="0.5" stroke-width="2.2" stroke-linecap="round"/></svg>
