<svg xmlns="http://www.w3.org/2000/svg" width="390" height="404" viewBox="0 0 390 404"><rect width="390" height="404" fill="#F2F2F2"/><rect width="390" height="44" fill="#FFFFFF"/><text x="16" y="28" font-family="-apple-system,BlinkMacSystemFont,'Segoe UI',Roboto,sans-serif" font-size="15" font-weight="600" fill="#1A1A1A">9:41</text>
<rect x="0" y="44" width="390" height="52" fill="#FFFFFF"/>
<path d="M24 70 l-6 -6 6 -6" fill="none" stroke="#1A1A1A" stroke-width="1.7" stroke-linecap="round" stroke-linejoin="round"/>
<text x="195" y="76" text-anchor="middle" font-family="-apple-system,BlinkMacSystemFont,'Segoe UI',Roboto,sans-serif" font-size="17" font-weight="700" fill="#1A1A1A">Search</text>
<line x1="0" y1="96" x2="390" y2="96" stroke="#E0E0E0" stroke-width="1"/>
<rect x="0" y="96" width="390" height="56" fill="#FFFFFF"/>
<g transform="translate(16 112)"><svg width="24" height="24" viewBox="0 0 24 24" fill="none" stroke="#333333" stroke-width="1.75" stroke-linecap="round" stroke-linejoin="round"><circle cx="11" cy="11" r="6.5"/><path d="m20 20-3.5-3.5"/></svg></g>
<text x="54" y="130" font-family="-apple-system,BlinkMacSystemFont,'Segoe UI',Roboto,sans-serif" font-size="16" font-weight="400" fill="#1A1A1A">Search items</text>
<path d="M370 119 l5 5 -5 5" fill="none" stroke="#BBBBBB" stroke-width="1.5" stroke-linecap="round" stroke-linejoin="round"/>
<line x1="54" y1="152" x2="390" y2="152" stroke="#E0E0E0" stroke-width="1"/>
<rect x="0" y="152" width="390" height="56" fill="#FFFFFF"/>
<g transform="translate(16 168)"><svg width="24" height="24" viewBox="0 0 24 24" fill="none" stroke="#333333" stroke-width="1.75" stroke-linecap="round" stroke-linejoin="round"><path d="M4 4h7.2a2 2 0 0 1 1.42.59l7 7a2 2 0 0 1 0 2.82l-4.8 4.8a2 2 0 0 1-2.82 0l-7-7A2 2 0 0 1 4 10.8V4z"/><circle cx="8.5" cy="8.5" r="1.3"/></svg></g>
<text x="54" y="186" font-family="-apple-system,BlinkMacSystemFont,'Segoe UI',Roboto,sans-serif" font-size="16" font-weight="400" fill="#1A1A1A">Categories</text>
<path d="M370 175 l5 5 -5 5" fill="none" stroke="#BBBBBB" stroke-width="1.5" stroke-linecap="round" stroke-linejoin="round"/>
<line x1="54" y1="208" x2="390" y2="208" stroke="#E0E0E0" stroke-width="1"/>
<rect x="0" y="208" width="390" height="56" fill="#FFFFFF"/>
<g transform="translate(16 224)"><svg width="24" height="24" viewBox="0 0 24 24" fill="none" stroke="#333333" stroke-width="1.75" stroke-linecap="round" stroke-linejoin="round"><circle cx="12" cy="12" r="3"/><path d="M12 2.5v2.2M12 19.3v2.2M2.5 12h2.2M19.3 12h2.2"/></svg></g>
<text x="54" y="242" font-family="-apple-system,BlinkMacSystemFont,'Segoe UI',Roboto,sans-serif" font-size="16" font-weight="400" fill="#1A1A1A">Filters</text>
<path d="M370 231 l5 5 -5 5" fill="none" stroke="#BBBBBB" stroke-width="1.5" stroke-linecap="round" stroke-linejoin="round"/>
<line x1="54" y1="264" x2="390" y2="264" stroke="#E0E0E0" stroke-width="1"/>
<rect x="0" y="264" width="390" height="56" fill="#FFFFFF"/>
<g transform="translate(16 280)"><svg width="24" height="24" viewBox="0 0 24 24" fill="none" stroke="#333333" stroke-width="1.75" stroke-linecap="round" stroke-linejoin="round"><path d="M12 20.5 10.7 19.3C6.1 15.1 3 12.3 3 8.9 3 6.2 5.2 4 8 4c1.6 0 3.1.8 4 2 .9-1.2 2.4-2 4-2 2.8 0 5 2.2 5 4.9 0 3.4-3.1 6.2-7.7 10.4L12 20.5Z"/></svg></g>
<text x="54" y="298" font-family="-apple-system,BlinkMacSystemFont,'Segoe UI',Roboto,sans-serif" font-size="16" font-weight="400" fill="#1A1A1A">Saved searches</text>
<path d="M370 287 l5 5 -5 5" fill="none" stroke="#BBBBBB" stroke-width="1.5" stroke-linecap="round" stroke-linejoin="round"/>
<g transform="translate(0 320)"><rect x="0" y="0" width="390" height="64" fill="#FFFFFF"/><line x1="0" y1="0" x2="390" y2="0" stroke="#E0E0E0" stroke-width="1"/><g transform="translate(27 8)"><svg width="24" height="24" viewBox="0 0 24 24" fill="none" stroke="#999999" stroke-width="1.75" stroke-linecap="round" stroke-linejoin="round"><path d="M4 10.5 12 4l8 6.5V20h-5v-6h-4v6H4z"/></svg></g><text x="39" y="52" text-anchor="middle" font-family="-apple-system,BlinkMacSystemFont,'Segoe UI',Roboto,sans-serif" font-size="10" font-weight="500" fill="#999999">Home</text><g transform="translate(105 8)"><svg width="24" height="24" viewBox="0 0 24 24" fill="none" stroke="#9333ea" stroke-width="1.75" stroke-linecap="round" stroke-linejoin="round"><circle cx="11" cy="11" r="6.5"/><path d="m20 20-3.5-3.5"/></svg></g><text x="117" y="52" text-anchor="middle" font-family="-apple-system,BlinkMacSystemFont,'Segoe UI',Roboto,sans-serif" font-size="10" font-weight="700" fill="#9333ea">Search</text><g transform="translate(183 8)"><svg width="24" height="24" viewBox="0 0 24 24" fill="none" stroke="#999999" stroke-width="1.75" stroke-linecap="round" stroke-linejoin="round"><path d="M12 5v14M5 12h14"/></svg></g><text x="195" y="52" text-anchor="middle" font-family="-apple-system,BlinkMacSystemFont,'Segoe UI',Roboto,sans-serif" font-size="10" font-weight="500" fill="#999999">Sell</text><g transform="translate(261 8)"><svg width="24" height="24" viewBox="0 0 24 24" fill="none" stroke="#999999" stroke-width="1.75" stroke-linecap="round" stroke-linejoin="round"><path d="M4 5h16a1 1 0 0 1 1 1v9a1 1 0 0 1-1 1H9l-4 3.5V16H4a1 1 0 0 1-1-1V6a1 1 0 0 1 1-1z"/></svg></g><text x="273" y="52" text-anchor="middle" font-family="-apple-system,BlinkMacSystemFont,'Segoe UI',Roboto,sans-serif" font-size="10" font-weight="500" fill="#999999">Inbox</text><circle cx="283" cy="10" r="7" fill="#9333ea"/><text x="283" y="13" text-anchor="middle" font-size="9" font-weight="700" fill="#fff">3</text><g transform="translate(339 8)"><svg width="24" height="24" viewBox="0 0 24 24" fill="none" stroke="#999999" stroke-width="1.75" stroke-linecap="round" stroke-linejoin="round"><circle cx="12" cy="8" r="4"/><path d="M4.5 20a7.5 7.5 0 0 1 15 0"/></svg></g><text x="351" y="52" text-anchor="middle" font-family="-apple-system,BlinkMacSystemFont,'Segoe UI',Roboto,sans-serif" font-size="10" font-weight="500" fill="#999999">Profile</text></g>
<rect x="0" y="384" width="390" height="20" fill="#F2F2F2"/><text x="16" y="398" font-family="ui-monospace,monospace" font-size="9" fill="#999999">Vinted menu 100% · ROVEXO functions · search</text></svg>