<?xml version="1.0" encoding="UTF-8"?>
<svg xmlns="http://www.w3.org/2000/svg" width="390" height="376" viewBox="0 0 390 376">
  <rect width="390" height="376" rx="20" fill="#ffffff" stroke="#0f172a14"/>
  <rect x="0" y="0" width="390" height="64" fill="#ffffff"/>
  <line x1="0" y1="64" x2="390" y2="64" stroke="#0f172a14"/>
  <text x="24" y="40" font-family="system-ui,sans-serif" font-size="22" fill="#64748b">‹</text>
  <text x="195" y="40" font-family="system-ui,sans-serif" font-size="16" font-weight="700" fill="#111111" text-anchor="middle">Parcel</text>
  <text x="16" y="88" font-family="system-ui,sans-serif" font-size="13" fill="#64748b">Four sizes only</text>
  <rect x="16" y="112" width="358" height="224" rx="20" fill="#ffffff" stroke="#0f172a14"/>
  
  <line x1="16" y1="168" x2="374" y2="168" stroke="#0f172a14"/>
  <rect x="32" y="130" width="20" height="20" rx="6" fill="#f3e8ff"/>
  <text x="64" y="146" font-family="system-ui,sans-serif" font-size="15" font-weight="500" fill="#111111">Small Parcel</text>
  <text x="360" y="148" font-family="system-ui,sans-serif" font-size="18" fill="#cbd5e1" text-anchor="end">›</text>
  <line x1="16" y1="224" x2="374" y2="224" stroke="#0f172a14"/>
  <rect x="32" y="186" width="20" height="20" rx="6" fill="#f3e8ff"/>
  <text x="64" y="202" font-family="system-ui,sans-serif" font-size="15" font-weight="500" fill="#111111">Medium Parcel</text>
  <text x="360" y="204" font-family="system-ui,sans-serif" font-size="18" fill="#cbd5e1" text-anchor="end">›</text>
  <line x1="16" y1="280" x2="374" y2="280" stroke="#0f172a14"/>
  <rect x="32" y="242" width="20" height="20" rx="6" fill="#f3e8ff"/>
  <text x="64" y="258" font-family="system-ui,sans-serif" font-size="15" font-weight="500" fill="#111111">Large Parcel</text>
  <text x="360" y="260" font-family="system-ui,sans-serif" font-size="18" fill="#cbd5e1" text-anchor="end">›</text>
  <line x1="16" y1="336" x2="374" y2="336" stroke="#0f172a14"/>
  <rect x="32" y="298" width="20" height="20" rx="6" fill="#f3e8ff"/>
  <text x="64" y="314" font-family="system-ui,sans-serif" font-size="15" font-weight="500" fill="#111111">Extra Large Parcel</text>
  <text x="360" y="316" font-family="system-ui,sans-serif" font-size="18" fill="#cbd5e1" text-anchor="end">›</text>
  <text x="16" y="362" font-family="system-ui,sans-serif" font-size="11" fill="#64748b">Default · 16px · 100% · purple/white/black/grey</text>
</svg>