<?xml version="1.0" encoding="UTF-8"?>
<svg xmlns="http://www.w3.org/2000/svg" width="390" height="432" viewBox="0 0 390 432">
  <rect width="390" height="432" rx="20" fill="#ffffff" stroke="#0f172a14"/>
  <rect x="0" y="0" width="390" height="64" fill="#ffffff"/>
  <line x1="0" y1="64" x2="390" y2="64" stroke="#0f172a14"/>
  <text x="24" y="40" font-family="system-ui,sans-serif" font-size="22" fill="#64748b">‹</text>
  <text x="195" y="40" font-family="system-ui,sans-serif" font-size="16" font-weight="700" fill="#111111" text-anchor="middle">Settings flow</text>
  <text x="16" y="88" font-family="system-ui,sans-serif" font-size="13" fill="#64748b">Same rows as every other hub</text>
  <rect x="16" y="112" width="358" height="280" rx="20" fill="#ffffff" stroke="#0f172a14"/>
  
  <line x1="16" y1="168" x2="374" y2="168" stroke="#0f172a14"/>
  <rect x="32" y="130" width="20" height="20" rx="6" fill="#f3e8ff"/>
  <text x="64" y="146" font-family="system-ui,sans-serif" font-size="15" font-weight="500" fill="#111111">Profile</text>
  <text x="360" y="148" font-family="system-ui,sans-serif" font-size="18" fill="#cbd5e1" text-anchor="end">›</text>
  <line x1="16" y1="224" x2="374" y2="224" stroke="#0f172a14"/>
  <rect x="32" y="186" width="20" height="20" rx="6" fill="#f3e8ff"/>
  <text x="64" y="202" font-family="system-ui,sans-serif" font-size="15" font-weight="500" fill="#111111">Addresses</text>
  <text x="360" y="204" font-family="system-ui,sans-serif" font-size="18" fill="#cbd5e1" text-anchor="end">›</text>
  <line x1="16" y1="280" x2="374" y2="280" stroke="#0f172a14"/>
  <rect x="32" y="242" width="20" height="20" rx="6" fill="#f3e8ff"/>
  <text x="64" y="258" font-family="system-ui,sans-serif" font-size="15" font-weight="500" fill="#111111">Notifications</text>
  <text x="360" y="260" font-family="system-ui,sans-serif" font-size="18" fill="#cbd5e1" text-anchor="end">›</text>
  <line x1="16" y1="336" x2="374" y2="336" stroke="#0f172a14"/>
  <rect x="32" y="298" width="20" height="20" rx="6" fill="#f3e8ff"/>
  <text x="64" y="314" font-family="system-ui,sans-serif" font-size="15" font-weight="500" fill="#111111">Privacy &amp; Security</text>
  <text x="360" y="316" font-family="system-ui,sans-serif" font-size="18" fill="#cbd5e1" text-anchor="end">›</text>
  <line x1="16" y1="392" x2="374" y2="392" stroke="#0f172a14"/>
  <rect x="32" y="354" width="20" height="20" rx="6" fill="#f3e8ff"/>
  <text x="64" y="370" font-family="system-ui,sans-serif" font-size="15" font-weight="500" fill="#111111">Sign Out</text>
  <text x="360" y="372" font-family="system-ui,sans-serif" font-size="18" fill="#cbd5e1" text-anchor="end">›</text>
  <text x="16" y="418" font-family="system-ui,sans-serif" font-size="11" fill="#64748b">Default · 16px · 100% · purple/white/black/grey</text>
</svg>