<?xml version="1.0" encoding="UTF-8"?>
<svg xmlns="http://www.w3.org/2000/svg" width="390" height="284" viewBox="0 0 390 284">
  <rect width="390" height="284" rx="20" fill="#ffffff" stroke="#0f172a14"/>
  <rect x="0" y="0" width="390" height="64" fill="#ffffff"/>
  <line x1="0" y1="64" x2="390" y2="64" stroke="#0f172a14"/>
  <text x="24" y="40" font-family="system-ui,sans-serif" font-size="22" fill="#64748b">‹</text>
  <text x="195" y="40" font-family="system-ui,sans-serif" font-size="16" font-weight="700" fill="#111111" text-anchor="middle">Settings flow</text>
  
  <rect x="16" y="76" width="358" height="168" rx="20" fill="#ffffff" stroke="#0f172a14"/>
  
  <line x1="16" y1="132" x2="374" y2="132" stroke="#0f172a14"/>
  <rect x="32" y="94" width="20" height="20" rx="6" fill="#f3e8ff"/>
  <text x="64" y="110" font-family="system-ui,sans-serif" font-size="15" font-weight="500" fill="#64748b">Loading…</text>
  <text x="360" y="112" font-family="system-ui,sans-serif" font-size="18" fill="#cbd5e1" text-anchor="end">›</text>
  <line x1="16" y1="188" x2="374" y2="188" stroke="#0f172a14"/>
  <rect x="32" y="150" width="20" height="20" rx="6" fill="#f3e8ff"/>
  <text x="64" y="166" font-family="system-ui,sans-serif" font-size="15" font-weight="500" fill="#64748b">Loading…</text>
  <text x="360" y="168" font-family="system-ui,sans-serif" font-size="18" fill="#cbd5e1" text-anchor="end">›</text>
  <line x1="16" y1="244" x2="374" y2="244" stroke="#0f172a14"/>
  <rect x="32" y="206" width="20" height="20" rx="6" fill="#f3e8ff"/>
  <text x="64" y="222" font-family="system-ui,sans-serif" font-size="15" font-weight="500" fill="#64748b">Loading…</text>
  <text x="360" y="224" font-family="system-ui,sans-serif" font-size="18" fill="#cbd5e1" text-anchor="end">›</text>
  <text x="16" y="270" font-family="system-ui,sans-serif" font-size="11" fill="#64748b">Loading · 16px · 100% · purple/white/black/grey</text>
</svg>