<svg xmlns="http://www.w3.org/2000/svg" width="390" height="432" viewBox="0 0 390 432"><rect width="390" height="432" fill="#F2F2F2"/><rect width="390" height="44" fill="#FFFFFF"/><text x="16" y="28" font-family="-apple-system,BlinkMacSystemFont,'Segoe UI',Roboto,sans-serif" font-size="15" font-weight="600" fill="#1A1A1A">9:41</text>
<rect x="0" y="44" width="390" height="52" fill="#FFFFFF"/><path d="M24 70 l-6 -6 6 -6" fill="none" stroke="#1A1A1A" stroke-width="1.7" stroke-linecap="round"/><text x="195" y="76" text-anchor="middle" font-size="17" font-weight="700" fill="#1A1A1A">Checkout</text>
<line x1="0" y1="96" x2="390" y2="96" stroke="#E0E0E0"/>
<rect x="0" y="96" width="390" height="48" fill="#FFFFFF"/>
<text x="16" y="126" font-size="15" font-weight="400" fill="#1A1A1A">Item price</text>
<text x="374" y="126" text-anchor="end" font-size="15" font-weight="400" fill="#1A1A1A">£30.00</text>
<line x1="16" y1="144" x2="374" y2="144" stroke="#E0E0E0"/>
<rect x="0" y="144" width="390" height="48" fill="#FFFFFF"/>
<text x="16" y="174" font-size="15" font-weight="400" fill="#1A1A1A">Shipping</text>
<text x="374" y="174" text-anchor="end" font-size="15" font-weight="400" fill="#1A1A1A">£3.49</text>
<line x1="16" y1="192" x2="374" y2="192" stroke="#E0E0E0"/>
<rect x="0" y="192" width="390" height="48" fill="#FFFFFF"/>
<text x="16" y="222" font-size="15" font-weight="700" fill="#9333ea">Platform Fee (5.5%)</text>
<text x="374" y="222" text-anchor="end" font-size="15" font-weight="700" fill="#9333ea">£1.65</text>
<line x1="16" y1="240" x2="374" y2="240" stroke="#E0E0E0"/>
<rect x="0" y="240" width="390" height="56" fill="#FFFFFF"/><text x="16" y="274" font-size="17" font-weight="700" fill="#1A1A1A">Total</text><text x="374" y="274" text-anchor="end" font-size="17" font-weight="700" fill="#1A1A1A">£35.14</text>
<rect x="0" y="296" width="390" height="64" fill="#F2F2F2"/><text x="16" y="324" font-size="12" fill="#666666">Pe Vinted: „Buyer Protection fee”</text><text x="16" y="344" font-size="12" font-weight="700" fill="#9333ea">Pe ROVEXO: „Platform Fee” (aceeași poziție în sumar)</text>
<rect x="0" y="360" width="390" height="72" fill="#FFFFFF"/><rect x="16" y="372" width="358" height="48" rx="4" fill="#9333ea"/><text x="195" y="402" text-anchor="middle" font-size="16" font-weight="700" fill="#fff">Confirm &amp; Pay</text></svg>