<svg xmlns="http://www.w3.org/2000/svg" width="390" height="512" viewBox="0 0 390 512">
  <rect width="390" height="512" fill="#F2F2F2"/>
  <rect width="390" height="44" fill="#FFFFFF"/>
<text x="16" y="28" font-family="-apple-system, BlinkMacSystemFont, 'Segoe UI', Roboto, sans-serif" font-size="15" font-weight="600" fill="#1A1A1A">9:41</text>
<rect x="0" y="44" width="390" height="52" fill="#FFFFFF"/>
<path d="M24 70 l-6 -6 6 -6" fill="none" stroke="#1A1A1A" stroke-width="1.7" stroke-linecap="round" stroke-linejoin="round"/>
<text x="195" y="76" text-anchor="middle" font-family="-apple-system, BlinkMacSystemFont, 'Segoe UI', Roboto, sans-serif" font-size="17" font-weight="700" fill="#1A1A1A">Business</text>
<line x1="0" y1="96" x2="390" y2="96" stroke="#E0E0E0" stroke-width="1"/>
<rect x="0" y="96" width="390" height="56" fill="#FFFFFF"/>
<g transform="translate(16 112)"><svg width="24" height="24" viewBox="0 0 24 24" fill="none" stroke="#333333" stroke-width="1.75" stroke-linecap="round" stroke-linejoin="round"><path d="M6 8h12l1 12H5L6 8z"/><path d="M9 8V6a3 3 0 0 1 6 0v2"/></svg></g>
<text x="54" y="130" font-family="-apple-system, BlinkMacSystemFont, 'Segoe UI', Roboto, sans-serif" font-size="16" font-weight="400" fill="#1A1A1A">Orders</text>
<path d="M370 119 l5 5 -5 5" fill="none" stroke="#BBBBBB" stroke-width="1.5" stroke-linecap="round" stroke-linejoin="round"/>
<line x1="54" y1="152" x2="390" y2="152" stroke="#E0E0E0" stroke-width="1"/>
<rect x="0" y="152" width="390" height="56" fill="#FFFFFF"/>
<g transform="translate(16 168)"><svg width="24" height="24" viewBox="0 0 24 24" fill="none" stroke="#333333" stroke-width="1.75" stroke-linecap="round" stroke-linejoin="round"><path d="M4 8.5 12 4l8 4.5v9L12 22 4 17.5z"/><path d="M12 13v9"/><path d="M4 8.5 12 13l8-4.5"/></svg></g>
<text x="54" y="186" font-family="-apple-system, BlinkMacSystemFont, 'Segoe UI', Roboto, sans-serif" font-size="16" font-weight="400" fill="#1A1A1A">Inventory</text>
<path d="M370 175 l5 5 -5 5" fill="none" stroke="#BBBBBB" stroke-width="1.5" stroke-linecap="round" stroke-linejoin="round"/>
<line x1="54" y1="208" x2="390" y2="208" stroke="#E0E0E0" stroke-width="1"/>
<rect x="0" y="208" width="390" height="56" fill="#FFFFFF"/>
<g transform="translate(16 224)"><svg width="24" height="24" viewBox="0 0 24 24" fill="none" stroke="#333333" stroke-width="1.75" stroke-linecap="round" stroke-linejoin="round"><path d="M4 19h16"/><path d="M7 16V11"/><path d="M12 16V7"/><path d="M17 16v-4"/></svg></g>
<text x="54" y="242" font-family="-apple-system, BlinkMacSystemFont, 'Segoe UI', Roboto, sans-serif" font-size="16" font-weight="400" fill="#1A1A1A">Analytics</text>
<path d="M370 231 l5 5 -5 5" fill="none" stroke="#BBBBBB" stroke-width="1.5" stroke-linecap="round" stroke-linejoin="round"/>
<line x1="54" y1="264" x2="390" y2="264" stroke="#E0E0E0" stroke-width="1"/>
<rect x="0" y="264" width="390" height="56" fill="#FFFFFF"/>
<g transform="translate(16 280)"><svg width="24" height="24" viewBox="0 0 24 24" fill="none" stroke="#333333" stroke-width="1.75" stroke-linecap="round" stroke-linejoin="round"><path d="M12 3.8 14.4 9l5.6.8-4.1 4 1 5.6L12 16.8 7.1 19.4l1-5.6-4.1-4L9.6 9 12 3.8Z"/></svg></g>
<text x="54" y="298" font-family="-apple-system, BlinkMacSystemFont, 'Segoe UI', Roboto, sans-serif" font-size="16" font-weight="400" fill="#1A1A1A">Reviews</text>
<path d="M370 287 l5 5 -5 5" fill="none" stroke="#BBBBBB" stroke-width="1.5" stroke-linecap="round" stroke-linejoin="round"/>
<line x1="54" y1="320" x2="390" y2="320" stroke="#E0E0E0" stroke-width="1"/>
<rect x="0" y="320" width="390" height="56" fill="#FFFFFF"/>
<g transform="translate(16 336)"><svg width="24" height="24" viewBox="0 0 24 24" fill="none" stroke="#333333" stroke-width="1.75" stroke-linecap="round" stroke-linejoin="round"><rect x="3" y="7.5" width="18" height="12" rx="2"/><path d="M3 7.5A2 2 0 0 1 5 5.5h12"/><path d="M16 12.5h3v3h-3a1.5 1.5 0 0 1 0-3z"/></svg></g>
<text x="54" y="354" font-family="-apple-system, BlinkMacSystemFont, 'Segoe UI', Roboto, sans-serif" font-size="16" font-weight="400" fill="#1A1A1A">Wallet</text>
<path d="M370 343 l5 5 -5 5" fill="none" stroke="#BBBBBB" stroke-width="1.5" stroke-linecap="round" stroke-linejoin="round"/>
<line x1="54" y1="376" x2="390" y2="376" stroke="#E0E0E0" stroke-width="1"/>
<rect x="0" y="376" width="390" height="56" fill="#FFFFFF"/>
<g transform="translate(16 392)"><svg width="24" height="24" viewBox="0 0 24 24" fill="none" stroke="#333333" stroke-width="1.75" stroke-linecap="round" stroke-linejoin="round"><path d="M7 4h7l4 4v12H7z"/><path d="M14 4v4h4"/><path d="M9.5 12h6M9.5 15.5h6"/></svg></g>
<text x="54" y="410" font-family="-apple-system, BlinkMacSystemFont, 'Segoe UI', Roboto, sans-serif" font-size="16" font-weight="400" fill="#1A1A1A">VAT</text>
<path d="M370 399 l5 5 -5 5" fill="none" stroke="#BBBBBB" stroke-width="1.5" stroke-linecap="round" stroke-linejoin="round"/>
<line x1="54" y1="432" x2="390" y2="432" stroke="#E0E0E0" stroke-width="1"/>
<rect x="0" y="432" width="390" height="56" fill="#FFFFFF"/>
<g transform="translate(16 448)"><svg width="24" height="24" viewBox="0 0 24 24" fill="none" stroke="#333333" stroke-width="1.75" stroke-linecap="round" stroke-linejoin="round"><path d="M4 5.5h7.5L13 7.5H20v12H4z"/></svg></g>
<text x="54" y="466" font-family="-apple-system, BlinkMacSystemFont, 'Segoe UI', Roboto, sans-serif" font-size="16" font-weight="400" fill="#1A1A1A">Directory</text>
<path d="M370 455 l5 5 -5 5" fill="none" stroke="#BBBBBB" stroke-width="1.5" stroke-linecap="round" stroke-linejoin="round"/>
<rect x="0" y="488" width="390" height="24" fill="#F2F2F2"/>
<text x="16" y="504" font-family="ui-monospace,monospace" font-size="9" fill="#999999">Vinted structure · icons #333 · accent #9333ea · row 56px · inset divider</text>
</svg>